<?xml version="1.0" encoding="UTF-8"?>
<svg width="50px" height="50px" version="1.1" viewBox="0 0 256 256" xmlns="http://www.w3.org/2000/svg">
  <g transform="translate(51.2 51.2) scale(.6)" font-family="none" font-size="none" font-weight="none"
    stroke-dasharray="" stroke-miterlimit="10" text-anchor="none">
    <g fill="#000" style="mix-blend-mode:normal">
      <g transform="scale(5.12)">
        <path
          d="m41.027 1.8125c-0.21484-0.00391-0.42578 0.05859-0.60156 0.17969 0 0-1.3047 0.93359-4.8281 1.9531-3.5234 1.0195-9.1797 2.0547-17.598 2.0547-0.37891 0-0.72656 0.21484-0.89453 0.55469l-14.926 29.852c-0.27344 0.38281-0.24609 0.90234 0.06641 1.25 0.01563 0.01953 0.03125 0.03516 0.04297 0.04688 0.01953 0.01953 0.03516 0.03516 0.05469 0.05078v0.00391c0.01953 0.01563 0.03516 0.02734 0.05469 0.03906 0.27734 0.23828 12.082 10.203 31.602 10.203 0.38281 0 0.73047-0.21875 0.89844-0.5625l13.016-26.598c0.15234-0.30469 0.14453-0.66797-0.03125-0.96094-0.17187-0.29297-0.48047-0.47656-0.82031-0.49219-0.40234-0.01562-0.77344 0.20703-0.94531 0.57031l-12.723 26.008c-6.3047-0.07422-11.719-1.2109-16.156-2.6797 3.5508 0.5 7.6172 0.57813 12.121-0.20703 0.31641-0.05469 0.58594-0.25781 0.73047-0.54687l16.016-32.734c0.16406-0.32031 0.14063-0.70312-0.05469-1.0039-0.19531-0.30078-0.53906-0.46875-0.89453-0.44922-0.36719 0.02344-0.69141 0.24219-0.84375 0.57031l-15.781 32.242c-7.6914 1.2383-14.008-0.07422-18.359-1.6562 0.05469 0.00391 0.10938 0.01563 0.16797 0.01953 4.3555 0.52344 9.832 0.5625 14.367-1.6172 0.20313-0.09766 0.36719-0.26172 0.46484-0.46484l16.727-34.188c0.14844-0.30469 0.13281-0.66406-0.04297-0.95312-0.17969-0.29297-0.48828-0.47266-0.82812-0.48437zm-2.1406 3.043-15.336 31.344c-3.9062 1.7695-8.9102 1.8242-12.973 1.3359-3.0234-0.35937-5.0117-0.86719-6.1367-1.1797l14.195-28.395c8.1758-0.05859 13.898-1.0508 17.516-2.0938 1.2383-0.35937 1.9336-0.67969 2.7344-1.0117z">
        </path>
      </g>
    </g>
  </g>
</svg>
